<svg xmlns="http://www.w3.org/2000/svg" width="1024" height="1024" viewBox="0 0 1024 1024" aria-label="Arbiter">
  <style>
    .bg { fill: #ffffff; }
    @media (prefers-color-scheme: dark) { .bg { fill: #020719; } }
  </style>
  <defs>
    <linearGradient id="g0" gradientUnits="userSpaceOnUse" x1="682.362" y1="362.184" x2="699.539" y2="731.920">
      <stop offset="0" stop-color="#CD3D00"/>
      <stop offset="1" stop-color="#FFB801"/>
    </linearGradient>
    <linearGradient id="g1" gradientUnits="userSpaceOnUse" x1="256.138" y1="713.659" x2="587.192" y2="227.464">
      <stop offset="0" stop-color="#FE4F00"/>
      <stop offset="1" stop-color="#FFBF02"/>
    </linearGradient>
    <linearGradient id="g2" gradientUnits="userSpaceOnUse" x1="585.903" y1="374.212" x2="581.869" y2="282.726">
      <stop offset="0" stop-color="#BC3C01"/>
      <stop offset="1" stop-color="#7B2915"/>
    </linearGradient>
  </defs>

  <path fill="url(#g0)" d="M462.126 297.41C466.724 288.066 477.593 270.868 483.132 261.518L528.395 185.28L565.557 245.764C572.647 257.267 579.701 269.36 587.026 280.626C591.335 286.558 596.702 295.941 600.702 302.435L625.678 342.951L644.292 372.997C646.111 375.951 651.167 383.685 652.512 386.523C670.481 414.988 688.131 444.377 705.756 473.087L793.577 615.932L836.013 685.489C838.31 689.301 848.143 704.289 849.233 707.013C853.282 713.111 857.204 720.188 861.212 726.021C858.19 726.005 853.96 726.12 851.041 725.959C838.046 726.456 821.362 726.004 808.167 726.003L723.818 725.995C722.407 723.7 721.078 721.208 719.765 718.846C717.186 715.117 713.516 708.483 711.094 704.376L694.912 676.87L678.947 649.536C674.23 641.634 668.646 632.734 664.422 624.653C647.866 623.987 626.683 624.608 609.88 624.62L498.899 624.681C479.833 624.683 459.05 625.093 440.093 624.539C425.453 625.049 409.919 624.552 395.112 624.738C390.541 633.911 383.736 644.44 378.576 653.594C376.278 657.672 369.716 669.284 367.243 672.497C365.209 677.132 357.979 689.223 354.998 694.171C349.17 703.842 342.486 716.388 336.177 725.547C334.259 726.271 332.463 726.011 330.375 725.946L208.005 726.007C215.956 713.977 223.473 699.114 231.267 686.678C233.042 683.846 237.807 674.999 239.656 672.92C242.712 666.287 252.167 651.656 256.294 644.53L301.511 567.941L357.462 473.108L374.559 444.294C377.607 439.15 381.318 432.488 384.635 427.632C385.866 424.793 392.597 414.06 394.534 410.792L416.832 373.252L446.411 323.628C450.944 315.991 457.29 304.527 462.126 297.41Z"/>
  <path fill="url(#g1)" d="M462.126 297.41C466.724 288.066 477.593 270.868 483.132 261.518L528.395 185.28L565.557 245.764C572.647 257.267 579.701 269.36 587.026 280.626C584.33 286.749 576.446 299.509 572.825 305.83C561.924 324.823 550.9 343.746 539.754 362.596C536.987 367.318 527.238 383.4 525.608 387.452C503.095 426.234 462.753 495.756 438.791 537.821C438.861 538.217 438.93 538.613 439 539.009C433.744 545.8 425.625 562.993 421.773 567.034C418.593 576.297 406.929 590.044 403.491 599.259C402.457 602.03 400.602 620.454 400.637 623.755C407.584 623.765 435.62 623.204 440.093 624.539C425.453 625.049 409.919 624.552 395.112 624.738C390.541 633.911 383.736 644.44 378.576 653.594C376.278 657.672 369.716 669.284 367.243 672.497C365.209 677.132 357.979 689.223 354.998 694.171C349.17 703.842 342.486 716.388 336.177 725.547C334.259 726.271 332.463 726.011 330.375 725.946L208.005 726.007C215.956 713.977 223.473 699.114 231.267 686.678C233.042 683.846 237.807 674.999 239.656 672.92C242.712 666.287 252.167 651.656 256.294 644.53L301.511 567.941L357.462 473.108L374.559 444.294C377.607 439.15 381.318 432.488 384.635 427.632C385.866 424.793 392.597 414.06 394.534 410.792L416.832 373.252L446.411 323.628C450.944 315.991 457.29 304.527 462.126 297.41Z"/>
  <path fill="#F93D00" d="M208.005 726.007C215.956 713.977 223.473 699.114 231.267 686.678C233.042 683.846 237.807 674.999 239.656 672.92C240.138 676.498 229.183 689.841 228.165 694.731C231.057 692.913 228.975 692.232 230.705 692.546C231.484 692.687 231.86 692.548 232.604 692.296L232.96 691.727C237.326 684.853 244.928 689.242 250.712 691.478C256.773 693.847 262.861 696.147 268.973 698.378C279.611 702.179 291.473 703.986 301.988 709.336C304.877 710.806 308.729 711.338 311.435 713.45C316.582 717.035 320.749 719.948 326.469 722.622L326.635 723.361L325.572 724.57C326.609 725.076 327.287 724.763 328.656 724.635C332.117 722.643 332.217 718.219 335.123 715.259C335.175 718.253 330.025 722.704 330.375 725.946L208.005 726.007Z"/>
  <path fill="#F93D00" d="M367.243 672.497C366.713 668.147 377.011 658.514 375.319 654.161C372.867 653.111 371.246 654.428 369.618 655.927C369.67 654.619 419.599 569.045 421.773 567.034C418.593 576.297 406.929 590.044 403.491 599.259C402.457 602.03 400.602 620.454 400.637 623.755C407.584 623.765 435.62 623.204 440.093 624.539C425.453 625.049 409.919 624.552 395.112 624.738C390.541 633.911 383.736 644.44 378.576 653.594C376.278 657.672 369.716 669.284 367.243 672.497Z"/>
  <path fill="#FEAE21" d="M384.635 427.632C385.866 424.793 392.597 414.06 394.534 410.792L416.832 373.252L446.411 323.628C450.944 315.991 457.29 304.527 462.126 297.41C462.749 301.648 430.21 350.075 431.508 351.778C435.272 345.904 439.664 339.832 442.668 333.454C443.133 332.466 444.651 331.44 445.661 330.921L445.371 331.025L445.648 332.027L445.207 332.583C444.274 333.778 441.789 337.066 441.33 338.409C438.56 346.52 433.25 353.081 428.815 360.447C421.202 373.09 413.764 385.976 406.247 398.689C403.993 402.465 400.911 406.022 398.673 409.842C396.069 414.062 387.603 429.354 384.691 431.864C384.166 430.576 388.472 424.861 389.521 423.012C393.214 416.508 397.115 410.099 400.723 403.542C404.331 397.315 414.978 381.438 416.934 375.362C406.753 391.505 396.6 409.476 386.757 425.925C386.152 426.935 386.002 427.055 385.152 427.879L384.635 427.632Z"/>
  <path fill="#FA8100" d="M439 539.009C473.244 538.549 508.297 538.942 542.62 538.943L580.885 538.941C586.47 538.941 595.006 538.666 600.41 539.035C604.66 540.177 609.151 539.512 613.819 539.596C621.619 554.023 629.958 568.693 638.82 582.53C647.319 595.801 657.247 610.709 664.422 624.653C647.866 623.987 626.683 624.608 609.88 624.62L498.899 624.681C479.833 624.683 459.05 625.093 440.093 624.539C435.62 623.204 407.584 623.765 400.637 623.755C400.602 620.454 402.457 602.03 403.491 599.259C406.929 590.044 418.593 576.297 421.773 567.034C425.625 562.993 433.744 545.8 439 539.009Z"/>
  <path class="bg" d="M525.608 387.452C526.692 389.281 530.081 395.237 531.218 396.55C533.956 402.983 545.508 421.383 549.504 428.315L591.245 499.88C598.045 511.537 607.666 527.074 613.423 538.84C609.227 538.899 604.561 538.858 600.41 539.035C595.006 538.666 586.47 538.941 580.885 538.941L542.62 538.943C508.297 538.942 473.244 538.549 439 539.009C438.93 538.613 438.861 538.217 438.791 537.821C462.753 495.756 503.095 426.234 525.608 387.452Z"/>
  <path fill="url(#g2)" d="M587.026 280.626C591.335 286.558 596.702 295.941 600.702 302.435L625.678 342.951L644.292 372.997C646.111 375.951 651.167 383.685 652.512 386.523L651.527 386.54C647.904 381.1 640.886 365.68 632.916 364.875C629.591 365.198 626.184 366.356 622.865 366.635C618.379 367.013 613.84 367.042 609.398 367.433C598.96 368.351 588.201 370.05 577.702 369.747C563.844 369.348 549.887 372.892 536.443 375.882C535.749 376.035 532.658 377.629 531.834 378.029C530.153 381.366 528.412 383.742 526.737 387.381C528.453 390.103 530.796 393.417 531.218 396.55C530.081 395.237 526.692 389.281 525.608 387.452C527.238 383.4 536.987 367.318 539.754 362.596C550.9 343.746 561.924 324.823 572.825 305.83C576.446 299.509 584.33 286.749 587.026 280.626Z"/>
  <path fill="#FEAE21" d="M719.765 718.846C722.341 720.436 722.692 721.912 724.018 724.755L795.281 724.773C806.636 724.772 818.516 725.266 829.744 724.091C827.874 724.059 821.229 724.256 820.192 723.47C821.991 723.134 825.834 723.14 827.788 723.175C833.956 723.288 843.707 720.823 848.474 725.352L851.041 725.959C838.046 726.456 821.362 726.004 808.167 726.003L723.818 725.995C722.407 723.7 721.078 721.208 719.765 718.846Z"/>
  <path fill="#FEAE21" d="M849.233 707.013C853.282 713.111 857.204 720.188 861.212 726.021C858.19 726.005 853.96 726.12 851.041 725.959L848.474 725.352L848.766 724.306C853.444 723.308 851.661 722.778 854.754 719.993C856.177 718.712 855.194 720.203 855.872 718.764C853.198 715.643 849.85 711.129 849.233 707.013Z"/>
</svg>
